<svg width="22" height="24" viewBox="0 0 22 24" fill="none" xmlns="http://www.w3.org/2000/svg">
<path d="M11.8041 8.55313L15.8721 2.17598C16.1637 1.72059 16.6229 1.39835 17.1504 1.279C17.6778 1.15965 18.231 1.25279 18.6903 1.53827C19.6658 2.14684 19.9521 3.43598 19.3246 4.40112L16.6246 8.55141M8.00177 15.412H14.0001M11.0001 12.4154V18.4103M1.62634 13.8726L1.24748 10.4954C1.22046 10.2557 1.24434 10.013 1.31755 9.78316C1.39075 9.55331 1.51164 9.3415 1.67231 9.16158C1.83298 8.98165 2.02982 8.83766 2.24994 8.73902C2.47007 8.64037 2.70854 8.5893 2.94977 8.58913H19.0503C19.2916 8.5893 19.53 8.64037 19.7502 8.73902C19.9703 8.83766 20.1671 8.98165 20.3278 9.16158C20.4885 9.3415 20.6094 9.55331 20.6826 9.78316C20.7558 10.013 20.7796 10.2557 20.7526 10.4954L20.3738 13.8726C20.2541 14.9366 19.887 15.9578 19.3017 16.8545C18.7165 17.7511 17.9294 18.4982 17.0035 19.036C17.2949 19.5588 17.4972 20.1417 17.5915 20.764C17.6186 20.9463 17.6061 21.1324 17.5548 21.3094C17.5034 21.4865 17.4146 21.6504 17.2942 21.79C17.1738 21.9296 17.0247 22.0416 16.8571 22.1184C16.6894 22.1952 16.5073 22.2349 16.3229 22.2348H5.67719C5.49284 22.2349 5.31065 22.1952 5.14304 22.1184C4.97543 22.0416 4.82635 21.9296 4.70595 21.79C4.58554 21.6504 4.49666 21.4865 4.44535 21.3094C4.39404 21.1324 4.38151 20.9463 4.40862 20.764C4.50291 20.1417 4.70519 19.5588 4.99491 19.036C4.06933 18.498 3.28257 17.7508 2.69762 16.8542C2.11267 15.9576 1.74578 14.9364 1.62634 13.8726Z" stroke="black" stroke-opacity="0.7" stroke-width="2" stroke-linecap="round" stroke-linejoin="round"/>
</svg>
